<svg width="33" height="33" viewBox="0 0 33 33" fill="none" xmlns="http://www.w3.org/2000/svg">
<path d="M16.3243 8.79002C17.0178 8.79002 17.58 9.35222 17.58 10.0457V15.0686H22.6029C23.2964 15.0686 23.8586 15.6308 23.8586 16.3243C23.8586 17.0178 23.2964 17.58 22.6029 17.58H17.58V22.6029C17.58 23.2964 17.0178 23.8586 16.3243 23.8586C15.6308 23.8586 15.0686 23.2964 15.0686 22.6029V17.58H10.0457C9.35222 17.58 8.79002 17.0178 8.79002 16.3243C8.79002 15.6308 9.35222 15.0686 10.0457 15.0686H15.0686V10.0457C15.0686 9.35222 15.6308 8.79002 16.3243 8.79002Z" fill="white"/>
<path fill-rule="evenodd" clip-rule="evenodd" d="M16.3243 0C7.30863 0 0 7.30863 0 16.3243C0 25.3399 7.30863 32.6486 16.3243 32.6486C25.3399 32.6486 32.6486 25.3399 32.6486 16.3243C32.6486 7.30863 25.3399 0 16.3243 0ZM2.51143 16.3243C2.51143 8.69566 8.69566 2.51143 16.3243 2.51143C23.9529 2.51143 30.1371 8.69566 30.1371 16.3243C30.1371 23.9529 23.9529 30.1371 16.3243 30.1371C8.69566 30.1371 2.51143 23.9529 2.51143 16.3243Z" fill="white"/>
</svg>
