<svg width="27" height="27" viewBox="0 0 27 27" fill="none" xmlns="http://www.w3.org/2000/svg">
<path d="M9.72809 18.2132C9.33757 17.8227 9.33757 17.1895 9.72809 16.799L12.5565 13.9706L9.72809 11.1422C9.33757 10.7516 9.33757 10.1185 9.72809 9.72795C10.1186 9.33743 10.7518 9.33743 11.1423 9.72795L13.9707 12.5564L16.7992 9.72793C17.1897 9.3374 17.8228 9.33741 18.2134 9.72793C18.6039 10.1185 18.6039 10.7516 18.2134 11.1421L15.3849 13.9706L18.2134 16.799C18.6039 17.1895 18.6039 17.8227 18.2134 18.2132C17.8228 18.6038 17.1897 18.6038 16.7992 18.2132L13.9707 15.3848L11.1423 18.2132C10.7518 18.6037 10.1186 18.6037 9.72809 18.2132Z" fill="#FF0000"/>
<path fill-rule="evenodd" clip-rule="evenodd" d="M4.77831 23.163C-0.298501 18.0862 -0.298501 9.85501 4.77831 4.77819C9.85513 -0.298624 18.0863 -0.298623 23.1631 4.77819C28.2399 9.85501 28.2399 18.0862 23.1631 23.163C18.0863 28.2398 9.85513 28.2398 4.77831 23.163ZM6.19253 6.19241C1.89676 10.4882 1.89676 17.453 6.19253 21.7488C10.4883 26.0445 17.4531 26.0445 21.7489 21.7488C26.0446 17.453 26.0446 10.4882 21.7489 6.19241C17.4531 1.89664 10.4883 1.89664 6.19253 6.19241Z" fill="#FF0000"/>
</svg>
