<svg width="23" height="23" viewBox="0 0 23 23" fill="none" xmlns="http://www.w3.org/2000/svg">
<path d="M16.6184 9.89781C16.9522 9.57931 16.9647 9.05048 16.6462 8.71662C16.3277 8.38277 15.7989 8.37032 15.465 8.68882L9.91205 13.9864L7.42892 11.6134C7.09534 11.2946 6.56649 11.3066 6.24771 11.6402C5.92893 11.9738 5.94093 12.5026 6.27451 12.8214L9.33436 15.7455C9.65709 16.0539 10.1653 16.0541 10.4882 15.746L16.6184 9.89781Z" fill="white"/>
<path fill-rule="evenodd" clip-rule="evenodd" d="M11.4467 0.938782C5.4484 0.938782 0.585815 5.80137 0.585815 11.7997C0.585815 17.798 5.4484 22.6606 11.4467 22.6606C17.445 22.6606 22.3076 17.798 22.3076 11.7997C22.3076 5.80137 17.445 0.938782 11.4467 0.938782ZM2.25672 11.7997C2.25672 6.72418 6.37122 2.60969 11.4467 2.60969C16.5222 2.60969 20.6367 6.72418 20.6367 11.7997C20.6367 16.8752 16.5222 20.9897 11.4467 20.9897C6.37122 20.9897 2.25672 16.8752 2.25672 11.7997Z" fill="white"/>
</svg>
