<svg width="21" height="23" viewBox="0 0 21 23" fill="FF0000" xmlns="http://www.w3.org/2000/svg">
<path d="M7.89188 9.29331C8.35329 9.29331 8.72733 9.66736 8.72733 10.1288V16.8124C8.72733 17.2738 8.35329 17.6478 7.89188 17.6478C7.43047 17.6478 7.05643 17.2738 7.05643 16.8124V10.1288C7.05643 9.66736 7.43047 9.29331 7.89188 9.29331Z" fill="white"/>
<path d="M13.7401 16.8124V10.1288C13.7401 9.66736 13.366 9.29331 12.9046 9.29331C12.4432 9.29331 12.0691 9.66736 12.0691 10.1288V16.8124C12.0691 17.2738 12.4432 17.6478 12.9046 17.6478C13.366 17.6478 13.7401 17.2738 13.7401 16.8124Z" fill="white"/>
<path fill-rule="evenodd" clip-rule="evenodd" d="M7.89188 0.938782C7.22715 0.938782 6.58965 1.20284 6.11962 1.67288C5.64958 2.14291 5.38552 2.78041 5.38552 3.44514V4.28059H1.20826C0.746848 4.28059 0.372803 4.65464 0.372803 5.11605C0.372803 5.57746 0.746848 5.9515 1.20826 5.9515H2.04371V20.9897C2.04371 21.4328 2.21975 21.8578 2.53311 22.1712C2.84646 22.4845 3.27146 22.6606 3.71462 22.6606H17.0819C17.525 22.6606 17.95 22.4845 18.2634 22.1712C18.5767 21.8578 18.7528 21.4328 18.7528 20.9897V5.9515H19.5882C20.0496 5.9515 20.4237 5.57746 20.4237 5.11605C20.4237 4.65464 20.0496 4.28059 19.5882 4.28059H15.411V3.44514C15.411 2.78041 15.1469 2.14291 14.6769 1.67288C14.2068 1.20284 13.5693 0.938782 12.9046 0.938782H7.89188ZM13.7401 4.28059V3.44514C13.7401 3.22357 13.652 3.01106 13.4954 2.85439C13.3387 2.69771 13.1262 2.60969 12.9046 2.60969H7.89188C7.6703 2.60969 7.4578 2.69771 7.30113 2.85439C7.14445 3.01106 7.05643 3.22357 7.05643 3.44514V4.28059H13.7401ZM3.71462 5.9515V20.9897H17.0819V5.9515H3.71462Z" fill="white"/>
</svg>
